<svg xmlns="http://www.w3.org/2000/svg" width="32" height="32" viewBox="0 0 48 48"><defs><style>.cls-2{fill:#445f96}</style></defs><g id="Book"><rect width="34" height="48" x="8" rx="2" ry="2" style="fill:#4b6ea4"/><path d="M10 0h2v48h-2a2 2 0 0 1-2-2V2a2 2 0 0 1 2-2Z" class="cls-2"/><path d="M40 44H10a2 2 0 0 0 0 4h30a2 2 0 0 0 2-2v-4a2 2 0 0 1-2 2Z" style="fill:#a09b8c"/><path d="M40 44H10a2 2 0 0 0 0 4h30a2 2 0 0 0 2-2v-4a2 2 0 0 1-2 2Z" style="fill:#f1f2f2"/><path d="M42 44v2a2 2 0 0 1-2 2H10a2 2 0 0 1-1.7-3 2 2 0 0 0 1.7 1h30a2 2 0 0 0 2-2Z" style="fill:#4c5665"/><rect width="19" height="10" x="17" y="6" class="cls-2" rx="1" ry="1"/></g></svg>